<?xml version="1.0" encoding="UTF-8" standalone="no"?>
<!-- Created with Inkscape (http://www.inkscape.org/) -->

<svg
   version="1.1"
   id="svg1270"
   width="1329.443"
   height="293.88522"
   viewBox="0 0 1329.443 293.88522"
   xmlns="http://www.w3.org/2000/svg"
   xmlns:svg="http://www.w3.org/2000/svg">
  <defs
     id="defs1274" />
  <g
     id="g1276"
     transform="translate(0.50041908,-502.58444)">
    <path
       style="fill:none;stroke:#000000;stroke-width:1px;stroke-linecap:butt;stroke-linejoin:miter;stroke-opacity:1"
       d="m 0,506.5713 c 40.750333,-1.16224 174.50227,-2.32449 261.75341,-3.48673 49.77505,1.74336 88.3347,3.48673 111.82424,5.23009 -6.71815,1.07162 33.74041,4.38974 105.84701,9.21492 l 14.69405,1.49431 c 155.01633,20.62812 256.70975,36.40869 373.3286,53.54613 39.64914,9.51387 70.66554,10.39501 99.12261,8.71681 l 21.6675,-0.24905 c 30.82788,2.45613 47.94108,1.48359 64.00628,0.24905 43.892,1.15822 66.6083,-1.21285 88.4134,-3.73578 l 24.6561,-2.73957 c 50.6284,-2.97649 104.7385,-9.4347 162.8799,-19.92414 l 0.249,241.08211 -1328.19304823,-0.4981 z"
       id="path1280" />
  </g>
</svg>
