<?xml version="1.0" encoding="utf-8"?>
<!-- Svg Vector Icons : http://www.onlinewebfonts.com/icon -->
<!DOCTYPE svg PUBLIC "-//W3C//DTD SVG 1.1//EN" "http://www.w3.org/Graphics/SVG/1.1/DTD/svg11.dtd">
<svg version="1.1" xmlns="http://www.w3.org/2000/svg" xmlns:xlink="http://www.w3.org/1999/xlink" x="0px" y="0px" viewBox="0 0 1000 1000" enable-background="new 0 0 1000 1000" xml:space="preserve">
<metadata> Svg Vector Icons : http://www.onlinewebfonts.com/icon </metadata>
<g><path d="M498.6,990c-115.8,0-231.4-0.2-461.7-0.6l-14,0v-14c0-54.9,12.7-108.1,37.9-158.2c24.2-48.2,58.7-91.4,102.7-128.5c66.3-55.9,148.7-93.3,238.3-109.1c-113.3-40.6-194.7-149.1-194.7-276.2C207.1,141.6,338.7,10,500.4,10c161.7,0,293.3,131.6,293.3,293.3c0,127.2-81.4,235.8-194.9,276.3c89.4,15.9,171.5,53.2,237.7,109c44,37.1,78.6,80.3,102.7,128.5c25.1,50.1,37.9,103.3,37.9,158.2v14l-14,0C730.9,989.8,614.4,990,498.6,990z M51.3,961.3c220.8,0.4,333.9,0.6,447.3,0.6c113.3,0,227.4-0.2,450.1-0.6C939.8,760.3,742,599.1,500,599.1C258,599.1,60.2,760.3,51.3,961.3z M500.4,38.1c-146.2,0-265.2,118.9-265.2,265.2s118.9,265.2,265.2,265.2c146.2,0,265.2-118.9,265.2-265.2S646.6,38.1,500.4,38.1z"/></g>
</svg>